<svg width="41" height="40" viewBox="0 0 41 40" fill="none" xmlns="http://www.w3.org/2000/svg">
<mask id="mask0_5001_4204" style="mask-type:alpha" maskUnits="userSpaceOnUse" x="0" y="0" width="41" height="40">
<rect x="0.5" width="40" height="40" fill="#D9D9D9"/>
</mask>
<g mask="url(#mask0_5001_4204)">
<path d="M9.66667 20.1283C9.66667 21.8206 10.024 23.3788 10.7387 24.8029C11.4535 26.2271 12.72 27.7393 14.5383 29.3396V25.1283C14.5383 24.8911 14.6179 24.6929 14.7771 24.5338C14.9362 24.3746 15.1344 24.295 15.3717 24.295C15.6089 24.295 15.8071 24.3746 15.9663 24.5338C16.1254 24.6929 16.205 24.8911 16.205 25.1283V30.8975C16.205 31.2842 16.0774 31.6051 15.8221 31.8604C15.5668 32.116 15.2458 32.2438 14.8592 32.2438H9.08958C8.85264 32.2438 8.65444 32.1642 8.495 32.005C8.33583 31.8456 8.25625 31.6474 8.25625 31.4104C8.25625 31.1732 8.33583 30.975 8.495 30.8158C8.65444 30.6567 8.85264 30.5771 9.08958 30.5771H13.4071C11.4135 28.8418 10.0139 27.1345 9.20833 25.455C8.40278 23.7756 8 22 8 20.1283C8 17.6817 8.63944 15.4508 9.91833 13.4358C11.1972 11.4208 12.859 9.88987 14.9037 8.84292C15.1218 8.72764 15.3483 8.70473 15.5833 8.77417C15.8183 8.84362 15.9732 8.99362 16.0479 9.22417C16.1229 9.45501 16.1075 9.67723 16.0017 9.89084C15.8958 10.1047 15.7446 10.2693 15.5479 10.3846C13.7787 11.2885 12.3563 12.6128 11.2804 14.3575C10.2046 16.102 9.66667 18.0256 9.66667 20.1283ZM25.5 32.5C24.3675 32.5 23.39 32.0886 22.5675 31.2658C21.7447 30.4433 21.3333 29.4658 21.3333 28.3333C21.3333 27.2136 21.7115 26.2547 22.4679 25.4567C23.2243 24.6586 24.2264 24.2318 25.4742 24.1763C25.8825 23.1976 26.5199 22.3958 27.3863 21.7708C28.2526 21.1458 29.2906 20.8333 30.5 20.8333C31.8653 20.8333 33.0507 21.2858 34.0562 22.1908C35.0615 23.0956 35.6432 24.3097 35.8012 25.8333H36.3142C37.2458 25.8333 38.0375 26.1507 38.6892 26.7854C39.3408 27.4199 39.6667 28.1997 39.6667 29.125C39.6667 30.0567 39.344 30.8521 38.6987 31.5113C38.0535 32.1704 37.265 32.5 36.3333 32.5H25.5ZM26.4617 10.6925V14.8717C26.4617 15.1089 26.3821 15.3071 26.2229 15.4663C26.0637 15.6254 25.8656 15.705 25.6283 15.705C25.3911 15.705 25.1929 15.6254 25.0338 15.4663C24.8746 15.3071 24.795 15.1089 24.795 14.8717V9.10251C24.795 8.71584 24.9226 8.39487 25.1779 8.13959C25.4332 7.88403 25.7542 7.75626 26.1408 7.75626H31.9104C32.1474 7.75626 32.3456 7.83584 32.505 7.99501C32.6642 8.15445 32.7437 8.35265 32.7437 8.58959C32.7437 8.82681 32.6642 9.025 32.505 9.18417C32.3456 9.34334 32.1474 9.42292 31.9104 9.42292H27.5929C29.1507 10.784 30.2912 12.0496 31.0146 13.2196C31.7376 14.3893 32.2585 15.564 32.5771 16.7438C32.6518 16.9529 32.6229 17.1526 32.4904 17.3429C32.3579 17.5332 32.1837 17.6593 31.9679 17.7213C31.7521 17.7832 31.5528 17.7463 31.37 17.6104C31.1875 17.4749 31.0556 17.3024 30.9742 17.0929C30.6753 16.0096 30.2042 14.9925 29.5608 14.0417C28.9178 13.0908 27.8847 11.9744 26.4617 10.6925ZM25.5 30.8333H36.3333C36.7906 30.8333 37.1826 30.6699 37.5096 30.3429C37.8365 30.016 38 29.6239 38 29.1667C38 28.7095 37.8365 28.3174 37.5096 27.9904C37.1826 27.6635 36.7906 27.5 36.3333 27.5H34.25V26.25C34.25 25.2094 33.8851 24.3243 33.1554 23.5946C32.4257 22.8649 31.5406 22.5 30.5 22.5C29.4594 22.5 28.5903 22.8168 27.8925 23.4504C27.195 24.084 26.8249 24.8463 26.7821 25.7371V25.8333H25.5C24.8142 25.8333 24.226 26.0785 23.7354 26.5688C23.2451 27.0593 23 27.6475 23 28.3333C23 29.0192 23.2451 29.6074 23.7354 30.0979C24.226 30.5882 24.8142 30.8333 25.5 30.8333Z" fill="url(#paint0_linear_5001_4204)"/>
</g>
<defs>
<linearGradient id="paint0_linear_5001_4204" x1="23.8333" y1="7.75626" x2="23.8333" y2="32.5" gradientUnits="userSpaceOnUse">
<stop stop-color="#18A4FF"/>
<stop offset="0.48" stop-color="#B16DFF"/>
<stop offset="0.785" stop-color="#FA6164"/>
<stop offset="1" stop-color="#FEA708"/>
</linearGradient>
</defs>
</svg>
