<svg width="41" height="40" viewBox="0 0 41 40" fill="none" xmlns="http://www.w3.org/2000/svg">
<mask id="mask0_5002_4513" style="mask-type:alpha" maskUnits="userSpaceOnUse" x="0" y="0" width="41" height="40">
<rect x="0.5" width="40" height="40" fill="#D9D9D9"/>
</mask>
<g mask="url(#mask0_5002_4513)">
<path d="M26.7309 18.9937L21.5705 13.8333C21.4252 13.6881 21.3232 13.5382 21.2646 13.3837C21.2057 13.229 21.1763 13.0633 21.1763 12.8867C21.1763 12.71 21.2057 12.5458 21.2646 12.3942C21.3232 12.2425 21.4252 12.094 21.5705 11.9487L26.7309 6.78833C26.8762 6.64305 27.026 6.54111 27.1805 6.4825C27.3352 6.42361 27.5009 6.39417 27.6776 6.39417C27.8542 6.39417 28.0184 6.42361 28.1701 6.4825C28.3217 6.54111 28.4702 6.64305 28.6155 6.78833L33.7759 11.9487C33.9212 12.094 34.0231 12.2439 34.0817 12.3983C34.1406 12.5531 34.1701 12.7187 34.1701 12.8954C34.1701 13.0721 34.1406 13.2362 34.0817 13.3879C34.0231 13.5396 33.9212 13.6881 33.7759 13.8333L28.6155 18.9937C28.4702 19.139 28.3202 19.241 28.1655 19.2996C28.011 19.3585 27.8455 19.3879 27.6688 19.3879C27.4921 19.3879 27.328 19.3585 27.1763 19.2996C27.0246 19.241 26.8762 19.139 26.7309 18.9937ZM8.19214 16.3462V9.03833C8.19214 8.65694 8.32117 8.33722 8.57922 8.07917C8.83728 7.82111 9.157 7.69208 9.53839 7.69208H16.8463C17.2277 7.69208 17.5474 7.82111 17.8055 8.07917C18.0635 8.33722 18.1926 8.65694 18.1926 9.03833V16.3462C18.1926 16.7276 18.0635 17.0474 17.8055 17.3054C17.5474 17.5635 17.2277 17.6925 16.8463 17.6925H9.53839C9.157 17.6925 8.83728 17.5635 8.57922 17.3054C8.32117 17.0474 8.19214 16.7276 8.19214 16.3462ZM22.8076 30.9617V23.6537C22.8076 23.2724 22.9366 22.9526 23.1946 22.6946C23.4527 22.4365 23.7724 22.3075 24.1538 22.3075H31.4617C31.8431 22.3075 32.1628 22.4365 32.4209 22.6946C32.6789 22.9526 32.808 23.2724 32.808 23.6537V30.9617C32.808 31.3431 32.6789 31.6628 32.4209 31.9208C32.1628 32.1789 31.8431 32.3079 31.4617 32.3079H24.1538C23.7724 32.3079 23.4527 32.1789 23.1946 31.9208C22.9366 31.6628 22.8076 31.3431 22.8076 30.9617ZM8.19214 30.9617V23.6537C8.19214 23.2724 8.32117 22.9526 8.57922 22.6946C8.83728 22.4365 9.157 22.3075 9.53839 22.3075H16.8463C17.2277 22.3075 17.5474 22.4365 17.8055 22.6946C18.0635 22.9526 18.1926 23.2724 18.1926 23.6537V30.9617C18.1926 31.3431 18.0635 31.6628 17.8055 31.9208C17.5474 32.1789 17.2277 32.3079 16.8463 32.3079H9.53839C9.157 32.3079 8.83728 32.1789 8.57922 31.9208C8.32117 31.6628 8.19214 31.3431 8.19214 30.9617ZM9.85922 16.0258H16.5259V9.35916H9.85922V16.0258ZM27.7146 17.6408L32.423 12.9325L27.7146 8.22416L23.0063 12.9325L27.7146 17.6408ZM24.4742 30.6408H31.1409V23.9742H24.4742V30.6408ZM9.85922 30.6408H16.5259V23.9742H9.85922V30.6408Z" fill="url(#paint0_linear_5002_4513)"/>
</g>
<defs>
<linearGradient id="paint0_linear_5002_4513" x1="21.1811" y1="6.39417" x2="21.1811" y2="32.3079" gradientUnits="userSpaceOnUse">
<stop stop-color="#18A4FF"/>
<stop offset="0.48" stop-color="#B16DFF"/>
<stop offset="0.785" stop-color="#FA6164"/>
<stop offset="1" stop-color="#FEA708"/>
</linearGradient>
</defs>
</svg>
